{
	"asset":{
		"generator":"Khronos glTF Blender I/O v4.0.44",
		"version":"2.0"
	},
	"scene":0,
	"scenes":[
		{
			"name":"Scene",
			"nodes":[
				0,
				1,
				2,
				3,
				4,
				5
			]
		}
	],
	"nodes":[
		{
			"mesh":0,
			"name":"Probe derbis",
			"rotation":[
				-0.7035686373710632,
				-0.06334783881902695,
				0.062230225652456284,
				0.7050572037696838
			],
			"scale":[
				0.7000000476837158,
				0.5,
				0.699999988079071
			],
			"translation":[
				0.007641464471817017,
				0.03681284189224243,
				0.9763840436935425
			]
		},
		{
			"mesh":1,
			"name":"Cylinder.006",
			"rotation":[
				0.001298909424804151,
				-0.0002128012420143932,
				-0.382681667804718,
				0.9238793253898621
			],
			"scale":[
				0.015344996005296707,
				1,
				0.015344996005296707
			],
			"translation":[
				0.009522855281829834,
				0.03984680771827698,
				-0.3797653317451477
			]
		},
		{
			"mesh":2,
			"name":"Cylinder.005",
			"rotation":[
				0.0010690359631553292,
				0.0007678069523535669,
				-0.9238784313201904,
				0.3826838731765747
			],
			"scale":[
				0.015344996005296707,
				1,
				0.015344996005296707
			],
			"translation":[
				0.009522855281829834,
				0.03984680771827698,
				-0.3797653317451477
			]
		},
		{
			"mesh":3,
			"name":"Cylinder",
			"rotation":[
				-0.49909380078315735,
				0.5002116560935974,
				-0.49978670477867126,
				0.5009061098098755
			],
			"scale":[
				0.5,
				0.10000003129243851,
				0.5
			],
			"translation":[
				0.00962713360786438,
				0.04001501202583313,
				-0.45495110750198364
			]
		},
		{
			"mesh":4,
			"name":"Cube.001",
			"rotation":[
				-0.2698424458503723,
				0.653823733329773,
				-0.6527377367019653,
				0.27135422825813293
			],
			"scale":[
				0.08979327231645584,
				0.19129431247711182,
				0.15674667060375214
			],
			"translation":[
				0.49774467945098877,
				0.5283443927764893,
				0.046479374170303345
			]
		},
		{
			"mesh":5,
			"name":"Cube.002",
			"rotation":[
				-0.2698424160480499,
				0.653823733329773,
				-0.6527377367019653,
				0.2713542580604553
			],
			"scale":[
				0.25493136048316956,
				0.25493133068084717,
				0.25493133068084717
			],
			"translation":[
				0.008967634290456772,
				0.03895145654678345,
				0.020438402891159058
			]
		}
	],
	"materials":[
		{
			"doubleSided":true,
			"name":"Material.008",
			"pbrMetallicRoughness":{
				"baseColorFactor":[
					0.16291378438472748,
					0.16291378438472748,
					0.16291378438472748,
					1
				],
				"metallicFactor":0,
				"roughnessFactor":0
			}
		},
		{
			"doubleSided":true,
			"name":"Material.006",
			"pbrMetallicRoughness":{
				"baseColorFactor":[
					0.7999992966651917,
					0.4704700708389282,
					0.010261052288115025,
					1
				],
				"metallicFactor":0,
				"roughnessFactor":0
			}
		},
		{
			"doubleSided":true,
			"name":"Material.003",
			"pbrMetallicRoughness":{
				"baseColorFactor":[
					0.800000011920929,
					0.800000011920929,
					0.800000011920929,
					1
				],
				"metallicFactor":0,
				"roughnessFactor":0.5
			}
		},
		{
			"doubleSided":true,
			"name":"Material.004",
			"pbrMetallicRoughness":{
				"baseColorFactor":[
					0.022457173094153404,
					0.022457173094153404,
					0.022457173094153404,
					1
				],
				"metallicFactor":0,
				"roughnessFactor":0.10000000149011612
			}
		}
	],
	"meshes":[
		{
			"name":"Cylinder.001",
			"primitives":[
				{
					"attributes":{
						"POSITION":0,
						"NORMAL":1
					},
					"indices":2,
					"material":0
				}
			]
		},
		{
			"name":"Cylinder.008",
			"primitives":[
				{
					"attributes":{
						"POSITION":3,
						"NORMAL":4
					},
					"indices":5,
					"material":1
				}
			]
		},
		{
			"name":"Cylinder.005",
			"primitives":[
				{
					"attributes":{
						"POSITION":6,
						"NORMAL":7
					},
					"indices":5,
					"material":1
				}
			]
		},
		{
			"name":"Cylinder",
			"primitives":[
				{
					"attributes":{
						"POSITION":8,
						"NORMAL":9
					},
					"indices":10,
					"material":2
				}
			]
		},
		{
			"name":"Cube.002",
			"primitives":[
				{
					"attributes":{
						"POSITION":11,
						"NORMAL":12
					},
					"indices":13,
					"material":1
				}
			]
		},
		{
			"name":"Cube.001",
			"primitives":[
				{
					"attributes":{
						"POSITION":14,
						"NORMAL":15
					},
					"indices":16,
					"material":3
				}
			]
		}
	],
	"accessors":[
		{
			"bufferView":0,
			"componentType":5126,
			"count":816,
			"max":[
				1.0999997854232788,
				2.4568610191345215,
				1.0999997854232788
			],
			"min":[
				-1.0999997854232788,
				-1.600000023841858,
				-1.0999997854232788
			],
			"type":"VEC3"
		},
		{
			"bufferView":1,
			"componentType":5126,
			"count":816,
			"type":"VEC3"
		},
		{
			"bufferView":2,
			"componentType":5123,
			"count":4884,
			"type":"SCALAR"
		},
		{
			"bufferView":3,
			"componentType":5126,
			"count":1496,
			"max":[
				3.0811221599578857,
				3.217837333679199,
				-4.615245819091797
			],
			"min":[
				-3.081094741821289,
				0.3655889332294464,
				-56.97002410888672
			],
			"type":"VEC3"
		},
		{
			"bufferView":4,
			"componentType":5126,
			"count":1496,
			"type":"VEC3"
		},
		{
			"bufferView":5,
			"componentType":5123,
			"count":2904,
			"type":"SCALAR"
		},
		{
			"bufferView":6,
			"componentType":5126,
			"count":1496,
			"max":[
				3.0811080932617188,
				3.21783709526062,
				-4.6152448654174805
			],
			"min":[
				-3.0811080932617188,
				0.365588903427124,
				-56.97001647949219
			],
			"type":"VEC3"
		},
		{
			"bufferView":7,
			"componentType":5126,
			"count":1496,
			"type":"VEC3"
		},
		{
			"bufferView":8,
			"componentType":5126,
			"count":744,
			"max":[
				3.3193671703338623,
				8.747103691101074,
				3.3193676471710205
			],
			"min":[
				-3.3193676471710205,
				-1,
				-3.3193676471710205
			],
			"type":"VEC3"
		},
		{
			"bufferView":9,
			"componentType":5126,
			"count":744,
			"type":"VEC3"
		},
		{
			"bufferView":10,
			"componentType":5123,
			"count":4452,
			"type":"SCALAR"
		},
		{
			"bufferView":11,
			"componentType":5126,
			"count":156,
			"max":[
				1.005440354347229,
				1.0054402351379395,
				1
			],
			"min":[
				-1.192962646484375,
				-1.0054402351379395,
				-1
			],
			"type":"VEC3"
		},
		{
			"bufferView":12,
			"componentType":5126,
			"count":156,
			"type":"VEC3"
		},
		{
			"bufferView":13,
			"componentType":5123,
			"count":288,
			"type":"SCALAR"
		},
		{
			"bufferView":14,
			"componentType":5126,
			"count":140,
			"max":[
				21.915851593017578,
				0.5622111558914185,
				-1.4153172969818115
			],
			"min":[
				1.4077985286712646,
				0,
				-21.923355102539062
			],
			"type":"VEC3"
		},
		{
			"bufferView":15,
			"componentType":5126,
			"count":140,
			"type":"VEC3"
		},
		{
			"bufferView":16,
			"componentType":5123,
			"count":684,
			"type":"SCALAR"
		}
	],
	"bufferViews":[
		{
			"buffer":0,
			"byteLength":9792,
			"byteOffset":0,
			"target":34962
		},
		{
			"buffer":0,
			"byteLength":9792,
			"byteOffset":9792,
			"target":34962
		},
		{
			"buffer":0,
			"byteLength":9768,
			"byteOffset":19584,
			"target":34963
		},
		{
			"buffer":0,
			"byteLength":17952,
			"byteOffset":29352,
			"target":34962
		},
		{
			"buffer":0,
			"byteLength":17952,
			"byteOffset":47304,
			"target":34962
		},
		{
			"buffer":0,
			"byteLength":5808,
			"byteOffset":65256,
			"target":34963
		},
		{
			"buffer":0,
			"byteLength":17952,
			"byteOffset":71064,
			"target":34962
		},
		{
			"buffer":0,
			"byteLength":17952,
			"byteOffset":89016,
			"target":34962
		},
		{
			"buffer":0,
			"byteLength":8928,
			"byteOffset":106968,
			"target":34962
		},
		{
			"buffer":0,
			"byteLength":8928,
			"byteOffset":115896,
			"target":34962
		},
		{
			"buffer":0,
			"byteLength":8904,
			"byteOffset":124824,
			"target":34963
		},
		{
			"buffer":0,
			"byteLength":1872,
			"byteOffset":133728,
			"target":34962
		},
		{
			"buffer":0,
			"byteLength":1872,
			"byteOffset":135600,
			"target":34962
		},
		{
			"buffer":0,
			"byteLength":576,
			"byteOffset":137472,
			"target":34963
		},
		{
			"buffer":0,
			"byteLength":1680,
			"byteOffset":138048,
			"target":34962
		},
		{
			"buffer":0,
			"byteLength":1680,
			"byteOffset":139728,
			"target":34962
		},
		{
			"buffer":0,
			"byteLength":1368,
			"byteOffset":141408,
			"target":34963
		}
	],
	"buffers":[
		{
			"byteLength":142776,
			"uri":"satelital.bin"
		}
	]
}
